@@@@@@@@@@@@@@@@@@@@@@@@@@@@@@--www.tornster.com--@@@@@@@@@@@@@@@@@@@@@@@@@@@@@@
@                                                                              @
@ INFO:                                                                        @
@                                                                              @
@ General                                                                      @
@ Complete name                    : Domestic Disturbance                      @
@ Genre                            : Crime / Mystery / Thriller                @
@ Format                           : AVI                                       @
@ Format/Info                      : Audio Video Interleave                    @
@ File size                        : 1.37 GiB                                  @
@ Duration                         : 1h 25mn                                   @
@ Overall bit rate                 : 2 289 Kbps                                @
@ Writing application              : VirtualDubMod 1.5.4.1 (build 2178/release)@
@ Writing library                  : VirtualDubMod build 2178/release          @
@                                                                              @
@ Video                                                                        @
@ Format                           : MPEG-4 Visual                             @
@ Format settings, BVOP            : Yes                                       @
@ Format settings, QPel            : No                                        @
@ Format settings, GMC             : No warppoints                             @
@ Format settings, Matrix          : Default                                   @
@ Codec ID                         : DX50                                      @
@ Codec ID/Hint                    : DivX 5                                    @
@ Duration                         : 1h 25mn                                   @
@ Bit rate                         : 1 834 Kbps                                @
@ Width                            : 720 pixels                                @
@ Height                           : 304 pixels                                @
@ Display aspect ratio             : 2.35                                      @
@ Frame rate                       : 25.000 fps                                @
@ Resolution                       : 24 bits                                   @
@ Colorimetry                      : 4:2:0                                     @
@ Scan type                        : Progressive                               @
@ Bits/(Pixel*Frame)               : 0.335                                     @
@ Stream size                      : 1.10 MiB (80%)                            @
@ Writing library                  : DivX 2816                                 @
@                                                                              @
@ Audio                                                                        @
@ Format                           : AC-3                                      @
@ Format/Info                      : Audio Coding 3                            @
@ Codec ID                         : 2000                                      @
@ Duration                         : 1h 25mn                                   @
@ Bit rate mode                    : Constant                                  @
@ Bit rate                         : 448 Kbps                                  @
@ Channel(s)                       : 6 channels                                @
@ Channel positions                : Front: L C R, Surround: L R, LFE          @
@ Sampling rate                    : 48.0 KHz                                  @
@ Stream size                      : 274 MiB (26%)                             @
@ Alignment                        : Split accross interleaves                 @
@ Interleave, duration             : 80 ms (2.00 video frames)                 @
@ Interleave, preload duration     : 500 ms                                    @
@ Language                         : English                                   @
@ Subtitles                        : English German French                     @
@                                                                              @
@ IMDb Rating                      : 5.3/10                                    @
@ IMDb URL                         : http://www.imdb.com/title/tt0249478/      @
@                                                                              @
@°°°°°°°°°°°°°°°°°°°°°°°°°°°°°°°°°°°°°°°°°°°°°°°°°°°°°°°°°°°°°°°°°°°°°°°°°°°°°°@
@                                                                              @
@ In this "edge of your seat thriller," John Travolta stars as Frank Morrison, @
@ a man who discovers that his son's new stepfather is not who he pretends to  @
@ be. Frank's investigation into this man's past explodes into a terrifying    @
@ mission to rescue his son from the ultimate danger.                          @
@                                                                              @
@                                                                              @
@                                                                              @
@                                                                              @
@                                                                              @
@                                                                              @
@°°°°°°°°°°°°°°°°°°°°°°°°°°°°°°°°°°°°°°°°°°°°°°°°°°°°°°°°°°°°°°°°°°°°°°°°°°°°°°@
@                                                                              @
@ CAST:                                                                        @
@                                                                              @
@ John Travolta..............Frank Morrison                                    @
@ James Lashly...............Jason                                             @
@ Rebecca Tilney.............Laurie                                            @
@ Debra Mooney...............Theresa                                           @
@ Vince Vaughn...............Rick Barnes                                       @
@ Teri Polo..................Susan                                             @
@ Leland L. Jones............Coach Mark                                        @  
@                                                                              @
@°°°°°°°°°°°°°°°°°°°°°°°°°°°°°°°°°°°°°°°°°°°°°°°°°°°°°°°°°°°°°°°°°°°°°°°°°°°°°°@
@                                                                              @
@ Trackers:                                                                    @
@                                                                              @
@ http://tracker.publicbt.com:80/announce                                      @
@                                                                              @
@ http://tracker.publicbt.com/announce                                         @
@                                                                              @
@ http://tracker.ilibr.org:6969/announce                                       @
@                                                                              @
@ http://torrent-download.to:5869/announce                                     @
@                                                                              @
@ http://torrent-download.to:5869/announce.php                                 @
@                                                                              @
@ http://denis.stalker.h3q.com:6969/announce                                   @
@                                                                              @
@                                 @
@                                                                              @
@                                                                              @
@°°°°°°°°°°°°°°°°°°°°°°°°°°°°°°°°°°°°°°°°°°°°°°°°°°°°°°°°°°°°°°°°°°°°°°°°°°°°°°@
@                                                                              @
@                            Please remember to seed                           @
@                                                                              @
@                              Standalone Enabled                              @
@                                                                              @
@                               www.tornster.com                               @
@                                                                              @
@@@@@@@@@@@@@@@@@@@@@@@@@@@@@@@@@@@@@@@@@@@@@@@@@@@@@@@@@@@@@@@@@@@@@@@@@@@@@@@@